<svg xmlns="http://www.w3.org/2000/svg" viewBox="0 0 24 24" width="24" height="24">
  <!-- GOT Audio: War Horn -->
  <defs>
    <linearGradient id="bg_audio" x1="0%" y1="0%" x2="100%" y2="100%">
      <stop offset="0%" style="stop-color:#1A1000;stop-opacity:1" />
      <stop offset="100%" style="stop-color:#0A0800;stop-opacity:1" />
    </linearGradient>
  </defs>
  <rect x="3" y="1" width="14" height="19" rx="1.5" fill="url(#bg_audio)"/>
  <path d="M13 1 L17 5 L13 5 Z" fill="#FFB300" opacity="0.4"/>
  <path d="M13 1 L17 5" stroke="#FFB300" stroke-width="0.6" opacity="0.8"/>
  <!-- Large war horn -->
  <path d="M5 13 Q5 9 9 8 L14 6 L14 8 L10 10 Q7 11 7 13 Z" fill="#FFB300" opacity="0.2"/>
  <path d="M5 13 Q5 9 9 8 L14 6 L14 8 L10 10 Q7 11 7 13 Z" fill="none" stroke="#FFB300" stroke-width="0.8" opacity="0.7"/>
  <!-- Horn mouth -->
  <ellipse cx="6" cy="13" rx="2" ry="2.5" fill="#1A1000" opacity="0.4"/>
  <ellipse cx="6" cy="13" rx="2" ry="2.5" fill="none" stroke="#FFB300" stroke-width="0.5" opacity="0.5"/>
  <!-- Sound waves emanating -->
  <path d="M4 11 Q2.5 13 4 15" fill="none" stroke="#FFB300" stroke-width="0.5" opacity="0.4"/>
  <path d="M3 10 Q0.5 13 3 16" fill="none" stroke="#FFB300" stroke-width="0.4" opacity="0.3"/>
  <!-- Musical notes -->
  <circle cx="14" cy="14" r="0.8" fill="#FFB300" opacity="0.5"/>
  <line x1="14.8" y1="14" x2="14.8" y2="10" stroke="#FFB300" stroke-width="0.4" opacity="0.4"/>
  <path d="M14.8 10 Q16 10 15.5 11" fill="none" stroke="#FFB300" stroke-width="0.4" opacity="0.4"/>
</svg>