<svg xmlns="http://www.w3.org/2000/svg" viewBox="0 0 24 24" width="24" height="24">
  <!-- GOT: Changelog - History Scroll (Timeline of Westeros) -->
  <defs>
    <linearGradient id="bg_cl" x1="0%" y1="0%" x2="100%" y2="100%">
      <stop offset="0%" style="stop-color:#1A1A00;stop-opacity:1" />
      <stop offset="100%" style="stop-color:#0A0A00;stop-opacity:1" />
    </linearGradient>
  </defs>
  <rect x="3" y="1" width="14" height="19" rx="1.5" fill="url(#bg_cl)"/>
  <path d="M13 1 L17 5 L13 5 Z" fill="#FDD835" opacity="0.4"/>
  <path d="M13 1 L17 5" stroke="#FDD835" stroke-width="0.6" opacity="0.8"/>
  <!-- Hourglass / timeline -->
  <path d="M7 5 L13 5 L10 10 L13 15 L7 15 L10 10 Z" fill="#FDD835" opacity="0.1"/>
  <path d="M7 5 L13 5 L10 10 L13 15 L7 15 L10 10 Z" fill="none" stroke="#FDD835" stroke-width="0.6" opacity="0.5"/>
  <!-- Sand particles -->
  <circle cx="10" cy="7" r="0.3" fill="#FDD835" opacity="0.5"/>
  <circle cx="9.5" cy="8" r="0.3" fill="#FDD835" opacity="0.4"/>
  <circle cx="10.5" cy="7.5" r="0.3" fill="#FDD835" opacity="0.4"/>
  <!-- Sand falling -->
  <circle cx="10" cy="10.5" r="0.2" fill="#FDD835" opacity="0.4"/>
  <circle cx="10" cy="11.5" r="0.2" fill="#FDD835" opacity="0.3"/>
  <!-- Sand pile at bottom -->
  <path d="M8 15 Q10 13 12 15" fill="#FDD835" opacity="0.2"/>
  <!-- Version dots -->
  <circle cx="15" cy="8" r="0.4" fill="#FDD835" opacity="0.4"/>
  <circle cx="15" cy="11" r="0.4" fill="#FDD835" opacity="0.4"/>
  <circle cx="15" cy="14" r="0.4" fill="#FDD835" opacity="0.4"/>
  <line x1="15" y1="8.5" x2="15" y2="10.5" stroke="#FDD835" stroke-width="0.3" opacity="0.3"/>
  <line x1="15" y1="11.5" x2="15" y2="13.5" stroke="#FDD835" stroke-width="0.3" opacity="0.3"/>
</svg>
