<svg xmlns="http://www.w3.org/2000/svg" viewBox="0 0 24 24" width="24" height="24">
  <!-- GOT CSS: Tully Rivers - BRIGHTER -->
  <rect x="3" y="1" width="14" height="19" rx="1.5" fill="#001A33"/>
  <path d="M13 1 L17 5 L13 5 Z" fill="#42A5F5" opacity="0.6"/>
  <path d="M13 1 L17 5" stroke="#42A5F5" stroke-width="0.7"/>
  <!-- Flowing waves -->
  <path d="M5 9 Q7 7 9 9 Q11 11 13 9" fill="none" stroke="#42A5F5" stroke-width="1.2" stroke-linecap="round"/>
  <path d="M5 12 Q7 10 9 12 Q11 14 13 12" fill="none" stroke="#64B5F6" stroke-width="1.1" stroke-linecap="round"/>
  <path d="M5 15 Q7 13 9 15 Q11 17 13 15" fill="none" stroke="#90CAF9" stroke-width="1" stroke-linecap="round"/>
  <!-- Water droplet -->
  <path d="M15 13 Q15 11 16 10 Q17 11 17 13 Q17 14.5 16 14.5 Q15 14.5 15 13 Z" fill="#42A5F5" opacity="0.7"/>
</svg>