<svg xmlns="http://www.w3.org/2000/svg" viewBox="0 0 24 24" width="24" height="24">
  <!-- GOT Folder: Dist - Flaming Arrow - BRIGHT ORANGE -->
  <path d="M2 6 L7 6 L9 4 L14 4 L14 6 L22 6 L22 19 L2 19 Z" fill="#FF8A65" opacity="0.9"/>
  <rect x="2" y="7" width="20" height="12" rx="1" fill="#D84315"/>
  <!-- Arrow shaft -->
  <line x1="5" y1="16" x2="17" y2="9" stroke="#E0E0E0" stroke-width="1"/>
  <!-- Arrow head -->
  <path d="M17 9 L18.5 10.5 L16 10.5" fill="#FF8A65"/>
  <!-- Arrow fletching -->
  <path d="M5 16 L3.5 14.5 L5.5 15" fill="#FF8A65"/>
  <path d="M5 16 L3.5 17.5 L5.5 16.5" fill="#FF8A65"/>
  <!-- Flames on tip -->
  <path d="M15.5 9 Q15 7 16 7.5 Q17 5.5 17 8 Q18 6.5 18 9" fill="#FFAB40" opacity="0.8"/>
  <path d="M16 8 Q16 6.5 17 7.5 Q17.5 6 17.5 8.5" fill="#FFD54F" opacity="0.7"/>
</svg>