<svg xmlns="http://www.w3.org/2000/svg" viewBox="0 0 24 24" width="24" height="24">
  <!-- GOT Folder: GitHub - Raven Network - BRIGHT PURPLE/BLUE -->
  <path d="M2 6 L7 6 L9 4 L14 4 L14 6 L22 6 L22 19 L2 19 Z" fill="#B39DDB" opacity="0.9"/>
  <rect x="2" y="7" width="20" height="12" rx="1" fill="#311B92"/>
  <!-- GitHub octocat as a many-armed kraken -->
  <circle cx="12" cy="12" r="3.5" fill="#B39DDB" opacity="0.3"/>
  <circle cx="12" cy="11" r="2.5" fill="#B39DDB" opacity="0.4"/>
  <!-- Eyes -->
  <circle cx="11" cy="10.5" r="0.6" fill="#FFF" opacity="0.7"/>
  <circle cx="13" cy="10.5" r="0.6" fill="#FFF" opacity="0.7"/>
  <circle cx="11" cy="10.5" r="0.3" fill="#311B92"/>
  <circle cx="13" cy="10.5" r="0.3" fill="#311B92"/>
  <!-- Tentacles / arms -->
  <path d="M9 14 Q7 15 6 14 Q5.5 13 6.5 12.5" fill="none" stroke="#B39DDB" stroke-width="0.7"/>
  <path d="M15 14 Q17 15 18 14 Q18.5 13 17.5 12.5" fill="none" stroke="#B39DDB" stroke-width="0.7"/>
  <path d="M10 15 Q9 17 8 16.5" fill="none" stroke="#B39DDB" stroke-width="0.6"/>
  <path d="M14 15 Q15 17 16 16.5" fill="none" stroke="#B39DDB" stroke-width="0.6"/>
  <!-- Scroll/issue in center -->
  <rect x="10.5" y="12.5" width="3" height="2" rx="0.3" fill="#B39DDB" opacity="0.5"/>
  <line x1="11" y1="13.2" x2="13" y2="13.2" stroke="#FFF" stroke-width="0.3" opacity="0.5"/>
  <line x1="11" y1="14" x2="12.5" y2="14" stroke="#FFF" stroke-width="0.3" opacity="0.5"/>
</svg>
