<svg xmlns="http://www.w3.org/2000/svg" viewBox="0 0 24 24" width="24" height="24">
  <!-- GOT Folder: Docs - Maester Scroll - BRIGHT BROWN/TAN -->
  <path d="M2 6 L7 6 L9 4 L14 4 L14 6 L22 6 L22 19 L2 19 Z" fill="#D7CCC8" opacity="0.9"/>
  <rect x="2" y="7" width="20" height="12" rx="1" fill="#5D4037"/>
  <!-- Open scroll -->
  <path d="M7 9 Q5.5 9 5.5 10 L5.5 16.5 Q5.5 17.5 7 17.5" fill="none" stroke="#D7CCC8" stroke-width="1"/>
  <path d="M17 9 Q18.5 9 18.5 10 L18.5 16.5 Q18.5 17.5 17 17.5" fill="none" stroke="#D7CCC8" stroke-width="1"/>
  <rect x="7" y="9" width="10" height="8.5" fill="#D7CCC8" opacity="0.2"/>
  <!-- Text lines -->
  <line x1="9" y1="11" x2="15" y2="11" stroke="#D7CCC8" stroke-width="0.7" opacity="0.8"/>
  <line x1="9" y1="13" x2="14" y2="13" stroke="#D7CCC8" stroke-width="0.7" opacity="0.8"/>
  <line x1="9" y1="15" x2="13" y2="15" stroke="#D7CCC8" stroke-width="0.7" opacity="0.8"/>
  <!-- Quill -->
  <path d="M16 8 Q18 6.5 17 9.5" fill="#FFD700" opacity="0.8"/>
  <!-- Wax seal -->
  <circle cx="15.5" cy="16" r="1.2" fill="#C62828" opacity="0.8"/>
</svg>