<svg xmlns="http://www.w3.org/2000/svg" viewBox="0 0 24 24" width="24" height="24">
  <!-- GOT Folder: Hooks - Fish Hook (Tully) - BRIGHT CYAN -->
  <path d="M2 6 L7 6 L9 4 L14 4 L14 6 L22 6 L22 19 L2 19 Z" fill="#4DD0E1" opacity="0.9"/>
  <rect x="2" y="7" width="20" height="12" rx="1" fill="#00695C"/>
  <!-- Fish hook -->
  <line x1="12" y1="8" x2="12" y2="13" stroke="#4DD0E1" stroke-width="1"/>
  <path d="M12 13 Q12 16.5 9.5 16.5 Q7 16.5 7 14 Q7 11.5 9.5 11.5" fill="none" stroke="#4DD0E1" stroke-width="1"/>
  <path d="M9.5 11.5 L8.5 10.5" stroke="#4DD0E1" stroke-width="0.8"/>
  <!-- Tully fish -->
  <path d="M15 12 Q17.5 11 19 12 Q17.5 13 15 12 Z" fill="#4DD0E1" opacity="0.7"/>
  <path d="M19 12 L20 11 M19 12 L20 13" stroke="#4DD0E1" stroke-width="0.5"/>
  <circle cx="16.5" cy="11.7" r="0.4" fill="#FFF" opacity="0.7"/>
  <!-- Water ripples -->
  <path d="M5 15.5 Q8 14.5 11 15.5 Q14 16.5 17 15.5" fill="none" stroke="#4DD0E1" stroke-width="0.5" opacity="0.5"/>
  <path d="M6 17 Q9 16 12 17 Q15 18 18 17" fill="none" stroke="#4DD0E1" stroke-width="0.4" opacity="0.4"/>
</svg>