<svg xmlns="http://www.w3.org/2000/svg" viewBox="0 0 24 24" width="24" height="24">
  <!-- GOT Folder: Styles - Jeweled Crown - BRIGHT PINK/MAGENTA -->
  <path d="M2 6 L7 6 L9 4 L14 4 L14 6 L22 6 L22 19 L2 19 Z" fill="#F48FB1" opacity="0.9"/>
  <rect x="2" y="7" width="20" height="12" rx="1" fill="#880E4F"/>
  <!-- Crown -->
  <path d="M6 15 L7.5 9 L10 12 L12 8 L14 12 L16.5 9 L18 15 Z" fill="#FFD700" opacity="0.5"/>
  <path d="M6 15 L7.5 9 L10 12 L12 8 L14 12 L16.5 9 L18 15 Z" fill="none" stroke="#FFD700" stroke-width="0.8"/>
  <!-- Crown base band -->
  <rect x="6" y="15" width="12" height="2" rx="0.3" fill="#FFD700" opacity="0.4"/>
  <rect x="6" y="15" width="12" height="2" rx="0.3" fill="none" stroke="#FFD700" stroke-width="0.6"/>
  <!-- Jewels -->
  <circle cx="7.5" cy="9.5" r="0.8" fill="#F48FB1"/>
  <circle cx="12" cy="8.5" r="0.8" fill="#F48FB1"/>
  <circle cx="16.5" cy="9.5" r="0.8" fill="#F48FB1"/>
  <!-- Band jewels -->
  <circle cx="9" cy="16" r="0.5" fill="#F48FB1" opacity="0.8"/>
  <circle cx="12" cy="16" r="0.5" fill="#F48FB1" opacity="0.8"/>
  <circle cx="15" cy="16" r="0.5" fill="#F48FB1" opacity="0.8"/>
</svg>