<svg xmlns="http://www.w3.org/2000/svg" viewBox="0 0 24 24" width="24" height="24">
  <!-- GOT Folder: Assets - Treasure Hoard - BRIGHT AMBER -->
  <path d="M2 6 L7 6 L9 4 L14 4 L14 6 L22 6 L22 19 L2 19 Z" fill="#FFB300" opacity="0.9"/>
  <rect x="2" y="7" width="20" height="12" rx="1" fill="#E65100"/>
  <!-- Gold coins pile -->
  <circle cx="9" cy="15" r="1.8" fill="#FFD54F" opacity="0.8"/>
  <circle cx="12" cy="14.5" r="1.8" fill="#FFC107" opacity="0.8"/>
  <circle cx="15" cy="15.5" r="1.8" fill="#FFB300" opacity="0.8"/>
  <circle cx="10.5" cy="13" r="1.5" fill="#FFD54F" opacity="0.7"/>
  <circle cx="13.5" cy="13" r="1.5" fill="#FFC107" opacity="0.7"/>
  <circle cx="12" cy="11.5" r="1.3" fill="#FFB300" opacity="0.6"/>
  <!-- Crown on top -->
  <path d="M10 10 L10.5 8 L12 9.5 L13.5 8 L14 10" fill="none" stroke="#FFD700" stroke-width="0.8"/>
  <!-- Sparkle -->
  <path d="M8 10 L8.3 9 L8.6 10 L9.5 10.3 L8.6 10.6 L8.3 11.5 L8 10.6 L7 10.3 Z" fill="#FFF" opacity="0.5"/>
</svg>