<svg xmlns="http://www.w3.org/2000/svg" viewBox="0 0 24 24" width="24" height="24">
  <!-- GOT Folder: Utils - Maester's Gear - BRIGHT YELLOW -->
  <path d="M2 6 L7 6 L9 4 L14 4 L14 6 L22 6 L22 19 L2 19 Z" fill="#FFF176" opacity="0.9"/>
  <rect x="2" y="7" width="20" height="12" rx="1" fill="#F57F17"/>
  <!-- Gear -->
  <circle cx="12" cy="13" r="3.2" fill="none" stroke="#FFF176" stroke-width="1"/>
  <circle cx="12" cy="13" r="1.8" fill="none" stroke="#FFF176" stroke-width="0.7"/>
  <!-- Gear teeth -->
  <line x1="12" y1="9.2" x2="12" y2="10.5" stroke="#FFF176" stroke-width="1.3"/>
  <line x1="12" y1="15.5" x2="12" y2="16.8" stroke="#FFF176" stroke-width="1.3"/>
  <line x1="8.2" y1="13" x2="9.5" y2="13" stroke="#FFF176" stroke-width="1.3"/>
  <line x1="14.5" y1="13" x2="15.8" y2="13" stroke="#FFF176" stroke-width="1.3"/>
  <line x1="9.3" y1="10.3" x2="10.2" y2="11.2" stroke="#FFF176" stroke-width="1"/>
  <line x1="13.8" y1="14.8" x2="14.7" y2="15.7" stroke="#FFF176" stroke-width="1"/>
  <line x1="14.7" y1="10.3" x2="13.8" y2="11.2" stroke="#FFF176" stroke-width="1"/>
  <line x1="9.3" y1="15.7" x2="10.2" y2="14.8" stroke="#FFF176" stroke-width="1"/>
</svg>