<svg xmlns="http://www.w3.org/2000/svg" viewBox="0 0 24 24" width="24" height="24">
  <!-- GOT Folder: Config - Three-Eyed Raven - BRIGHT PURPLE -->
  <path d="M2 6 L7 6 L9 4 L14 4 L14 6 L22 6 L22 19 L2 19 Z" fill="#B39DDB" opacity="0.9"/>
  <rect x="2" y="7" width="20" height="12" rx="1" fill="#4527A0"/>
  <!-- Three eyes - bright -->
  <ellipse cx="8" cy="13" rx="2" ry="1.2" fill="none" stroke="#B39DDB" stroke-width="1"/>
  <circle cx="8" cy="13" r="0.7" fill="#CE93D8"/>
  <ellipse cx="16" cy="13" rx="2" ry="1.2" fill="none" stroke="#B39DDB" stroke-width="1"/>
  <circle cx="16" cy="13" r="0.7" fill="#CE93D8"/>
  <!-- Third eye center top -->
  <ellipse cx="12" cy="10" rx="2" ry="1.2" fill="none" stroke="#E1BEE7" stroke-width="1"/>
  <circle cx="12" cy="10" r="0.8" fill="#E1BEE7"/>
  <!-- Connection lines -->
  <path d="M10 12 Q12 11.5 14 12" fill="none" stroke="#B39DDB" stroke-width="0.6" opacity="0.6"/>
  <!-- Feather hints -->
  <path d="M5 14 Q4 16 6.5 16.5" fill="none" stroke="#B39DDB" stroke-width="0.6" opacity="0.5"/>
  <path d="M19 14 Q20 16 17.5 16.5" fill="none" stroke="#B39DDB" stroke-width="0.6" opacity="0.5"/>
</svg>