<svg xmlns="http://www.w3.org/2000/svg" viewBox="0 0 24 24" width="24" height="24">
  <!-- GOT HTML: Dragonfire - BRIGHTER -->
  <rect x="3" y="1" width="14" height="19" rx="1.5" fill="#1A0800"/>
  <path d="M13 1 L17 5 L13 5 Z" fill="#FF6D00" opacity="0.6"/>
  <path d="M13 1 L17 5" stroke="#FF6D00" stroke-width="0.7"/>
  <!-- Fire flames -->
  <path d="M10 18 Q8 15 9 12 Q10 14 10 12 Q10 9 12 7 Q12 10 13 9 Q14 7 14 10 Q14 12 13 12 Q14 14 15 12 Q16 15 14 18 Z" fill="#FF6D00" opacity="0.5"/>
  <path d="M10 18 Q8 15 9 12 Q10 14 10 12 Q10 9 12 7 Q12 10 13 9 Q14 7 14 10 Q14 12 13 12 Q14 14 15 12 Q16 15 14 18 Z" fill="none" stroke="#FF8F00" stroke-width="0.8"/>
  <!-- Inner flame -->
  <path d="M11 18 Q10 16 11 14 Q12 16 12 14 Q12 12 13 11 Q14 13 13 18 Z" fill="#FFAB00" opacity="0.6"/>
  <!-- Ember sparks -->
  <circle cx="8" cy="9" r="0.5" fill="#FF6D00" opacity="0.8"/>
  <circle cx="15" cy="8" r="0.4" fill="#FFAB00" opacity="0.7"/>
  <circle cx="7" cy="11" r="0.3" fill="#FF8F00" opacity="0.6"/>
</svg>