<svg xmlns="http://www.w3.org/2000/svg" viewBox="0 0 24 24" width="24" height="24">
  <!-- GOT Image: Tapestry Frame -->
  <defs>
    <linearGradient id="bg_img" x1="0%" y1="0%" x2="100%" y2="100%">
      <stop offset="0%" style="stop-color:#1A0D1A;stop-opacity:1" />
      <stop offset="100%" style="stop-color:#0A060A;stop-opacity:1" />
    </linearGradient>
  </defs>
  <rect x="3" y="1" width="14" height="19" rx="1.5" fill="url(#bg_img)"/>
  <path d="M13 1 L17 5 L13 5 Z" fill="#E040FB" opacity="0.4"/>
  <path d="M13 1 L17 5" stroke="#E040FB" stroke-width="0.6" opacity="0.8"/>
  <!-- Tapestry frame -->
  <rect x="5" y="6" width="10" height="10" rx="0.5" fill="none" stroke="#CFB53B" stroke-width="0.8" opacity="0.6"/>
  <!-- Frame corners (ornate) -->
  <circle cx="5" cy="6" r="0.8" fill="#CFB53B" opacity="0.5"/>
  <circle cx="15" cy="6" r="0.8" fill="#CFB53B" opacity="0.5"/>
  <circle cx="5" cy="16" r="0.8" fill="#CFB53B" opacity="0.5"/>
  <circle cx="15" cy="16" r="0.8" fill="#CFB53B" opacity="0.5"/>
  <!-- Mountain landscape inside -->
  <path d="M5 15 L8 10 L10 12 L13 8 L15 15 Z" fill="#E040FB" opacity="0.15"/>
  <path d="M5 15 L8 10 L10 12 L13 8 L15 15" fill="none" stroke="#E040FB" stroke-width="0.5" opacity="0.4"/>
  <!-- Sun/moon -->
  <circle cx="7" cy="8.5" r="1" fill="#CFB53B" opacity="0.4"/>
</svg>