<svg xmlns="http://www.w3.org/2000/svg" viewBox="0 0 24 24" width="24" height="24">
  <!-- GOT JS: Wildfire Flask - BRIGHTER -->
  <defs>
    <radialGradient id="glow_js" cx="50%" cy="50%" r="50%">
      <stop offset="0%" style="stop-color:#7FFF00;stop-opacity:0.4" />
      <stop offset="100%" style="stop-color:#3A5F00;stop-opacity:0" />
    </radialGradient>
  </defs>
  <rect x="2" y="2" width="20" height="20" rx="2" fill="#1A2000"/>
  <rect x="2" y="2" width="20" height="20" rx="2" fill="none" stroke="#7FFF00" stroke-width="0.5" opacity="0.3"/>
  <circle cx="12" cy="13" r="5" fill="url(#glow_js)"/>
  <!-- Flask -->
  <path d="M10 7 L10 10 Q8 12 8 14 Q8 17 12 17 Q16 17 16 14 Q16 12 14 10 L14 7 Z" fill="#4CAF50" opacity="0.35"/>
  <path d="M10 7 L10 10 Q8 12 8 14 Q8 17 12 17 Q16 17 16 14 Q16 12 14 10 L14 7 Z" fill="none" stroke="#7FFF00" stroke-width="1" opacity="0.9"/>
  <rect x="10.2" y="5" width="3.6" height="2.5" rx="0.5" fill="none" stroke="#7FFF00" stroke-width="0.7"/>
  <!-- Wildfire bubbles -->
  <circle cx="11" cy="13" r="1" fill="#7FFF00" opacity="0.7"/>
  <circle cx="13" cy="14" r="0.8" fill="#7FFF00" opacity="0.6"/>
  <circle cx="12" cy="15.5" r="0.6" fill="#7FFF00" opacity="0.5"/>
  <!-- JS -->
  <text x="15.5" y="8" font-family="monospace" font-size="5" font-weight="bold" fill="#7FFF00">JS</text>
</svg>
