<svg xmlns="http://www.w3.org/2000/svg" viewBox="0 0 24 24" width="24" height="24">
  <!-- GOT Java: Wine Goblet / Chalice (Lannister luxury) -->
  <defs>
    <linearGradient id="bg_java" x1="0%" y1="0%" x2="100%" y2="100%">
      <stop offset="0%" style="stop-color:#1A0A00;stop-opacity:1" />
      <stop offset="100%" style="stop-color:#0A0500;stop-opacity:1" />
    </linearGradient>
  </defs>
  <rect x="3" y="1" width="14" height="19" rx="1.5" fill="url(#bg_java)"/>
  <path d="M13 1 L17 5 L13 5 Z" fill="#FF7043" opacity="0.4"/>
  <path d="M13 1 L17 5" stroke="#FF7043" stroke-width="0.6" opacity="0.8"/>
  <!-- Chalice cup -->
  <path d="M7 7 L7 11 Q7 14 10 14 Q13 14 13 11 L13 7 Z" fill="#FF7043" opacity="0.2"/>
  <path d="M7 7 L7 11 Q7 14 10 14 Q13 14 13 11 L13 7" fill="none" stroke="#FF7043" stroke-width="0.8" opacity="0.7"/>
  <!-- Wine level -->
  <path d="M7.5 9 L12.5 9 L12.5 11 Q12.5 13.5 10 13.5 Q7.5 13.5 7.5 11 Z" fill="#8B0000" opacity="0.4"/>
  <!-- Chalice stem -->
  <line x1="10" y1="14" x2="10" y2="17" stroke="#FF7043" stroke-width="0.8" opacity="0.7"/>
  <!-- Chalice base -->
  <ellipse cx="10" cy="17.5" rx="3" ry="0.8" fill="none" stroke="#FF7043" stroke-width="0.7" opacity="0.6"/>
  <!-- Steam curl -->
  <path d="M9 6 Q8.5 4 9.5 4 Q10 4 9.5 5.5" fill="none" stroke="#FF7043" stroke-width="0.4" opacity="0.3"/>
</svg>