<svg xmlns="http://www.w3.org/2000/svg" viewBox="0 0 24 24" width="24" height="24">
  <!-- GOT Markdown: Maester's Book - BRIGHTER -->
  <rect x="3" y="1" width="14" height="19" rx="1.5" fill="#1A1A1A"/>
  <path d="M13 1 L17 5 L13 5 Z" fill="#B0BEC5" opacity="0.6"/>
  <path d="M13 1 L17 5" stroke="#B0BEC5" stroke-width="0.7"/>
  <!-- Open book -->
  <path d="M5 8 L10 9 L10 17 L5 16 Z" fill="#B0BEC5" opacity="0.2"/>
  <path d="M15 8 L10 9 L10 17 L15 16 Z" fill="#B0BEC5" opacity="0.2"/>
  <path d="M5 8 L10 9 L15 8" fill="none" stroke="#B0BEC5" stroke-width="0.8"/>
  <line x1="10" y1="9" x2="10" y2="17" stroke="#B0BEC5" stroke-width="0.6"/>
  <!-- Text lines -->
  <line x1="6" y1="11" x2="9" y2="11.5" stroke="#B0BEC5" stroke-width="0.6" opacity="0.7"/>
  <line x1="6" y1="13" x2="9" y2="13.5" stroke="#B0BEC5" stroke-width="0.6" opacity="0.7"/>
  <line x1="11" y1="11.5" x2="14" y2="11" stroke="#B0BEC5" stroke-width="0.6" opacity="0.7"/>
  <line x1="11" y1="13.5" x2="14" y2="13" stroke="#B0BEC5" stroke-width="0.6" opacity="0.7"/>
  <!-- Quill -->
  <path d="M14 6 Q16 4 15 7 Q14.5 8 14 7" fill="#FFD700" opacity="0.7"/>
</svg>