<svg xmlns="http://www.w3.org/2000/svg" viewBox="0 0 24 24" width="24" height="24">
  <!-- GOT Package: Royal Manifest - BRIGHTER -->
  <rect x="3" y="1" width="14" height="19" rx="1.5" fill="#1A0A00"/>
  <path d="M13 1 L17 5 L13 5 Z" fill="#FF8A65" opacity="0.6"/>
  <path d="M13 1 L17 5" stroke="#FF8A65" stroke-width="0.7"/>
  <!-- Package box 3D -->
  <path d="M6 8 L10 6 L14 8 L14 15 L10 17 L6 15 Z" fill="#FF8A65" opacity="0.2"/>
  <path d="M6 8 L10 6 L14 8 L14 15 L10 17 L6 15 Z" fill="none" stroke="#FF8A65" stroke-width="0.8"/>
  <line x1="10" y1="6" x2="10" y2="17" stroke="#FF8A65" stroke-width="0.5"/>
  <line x1="6" y1="8" x2="14" y2="8" stroke="#FF8A65" stroke-width="0.5"/>
  <!-- Crown -->
  <path d="M8 6 L8.5 3.5 L10 5 L11.5 3.5 L12 6" fill="none" stroke="#FFD700" stroke-width="0.7"/>
  <!-- Ribbon -->
  <path d="M7.5 11 Q10 10 12.5 11" fill="none" stroke="#FFD700" stroke-width="0.5"/>
</svg>
