<svg xmlns="http://www.w3.org/2000/svg" viewBox="0 0 24 24" width="24" height="24">
  <!-- GOT TOML: Castle Tower -->
  <defs>
    <linearGradient id="bg_toml" x1="0%" y1="0%" x2="100%" y2="100%">
      <stop offset="0%" style="stop-color:#1A1500;stop-opacity:1" />
      <stop offset="100%" style="stop-color:#0A0A00;stop-opacity:1" />
    </linearGradient>
  </defs>
  <rect x="3" y="1" width="14" height="19" rx="1.5" fill="url(#bg_toml)"/>
  <path d="M13 1 L17 5 L13 5 Z" fill="#BCAAA4" opacity="0.4"/>
  <path d="M13 1 L17 5" stroke="#BCAAA4" stroke-width="0.6" opacity="0.8"/>
  <!-- Castle tower -->
  <rect x="8" y="8" width="4" height="10" fill="#BCAAA4" opacity="0.25"/>
  <rect x="8" y="8" width="4" height="10" fill="none" stroke="#BCAAA4" stroke-width="0.7" opacity="0.6"/>
  <!-- Battlements -->
  <rect x="7" y="6" width="1.5" height="2.5" fill="#BCAAA4" opacity="0.4"/>
  <rect x="9.2" y="6" width="1.5" height="2.5" fill="#BCAAA4" opacity="0.4"/>
  <rect x="11.5" y="6" width="1.5" height="2.5" fill="#BCAAA4" opacity="0.4"/>
  <!-- Window -->
  <path d="M9.2 12 Q10 10 10.8 12 L10.8 14 L9.2 14 Z" fill="#1A1500" opacity="0.5"/>
  <!-- Door -->
  <path d="M9 18 L9 16 Q10 15 11 16 L11 18" fill="#1A1500" opacity="0.4"/>
  <!-- Flag on top -->
  <line x1="10" y1="6" x2="10" y2="3.5" stroke="#BCAAA4" stroke-width="0.5" opacity="0.6"/>
  <path d="M10 3.5 L13 4.5 L10 5.5" fill="#8B0000" opacity="0.5"/>
</svg>