<svg xmlns="http://www.w3.org/2000/svg" viewBox="0 0 24 24" width="24" height="24">
  <!-- GOT Video: Theater / Mummer's Stage -->
  <defs>
    <linearGradient id="bg_video" x1="0%" y1="0%" x2="100%" y2="100%">
      <stop offset="0%" style="stop-color:#1A001A;stop-opacity:1" />
      <stop offset="100%" style="stop-color:#0A000A;stop-opacity:1" />
    </linearGradient>
  </defs>
  <rect x="3" y="1" width="14" height="19" rx="1.5" fill="url(#bg_video)"/>
  <path d="M13 1 L17 5 L13 5 Z" fill="#BA68C8" opacity="0.4"/>
  <path d="M13 1 L17 5" stroke="#BA68C8" stroke-width="0.6" opacity="0.8"/>
  <!-- Stage curtains -->
  <path d="M5 6 Q5 10 6 8 Q7 6 8 9 Q9 6 10 8" fill="none" stroke="#BA68C8" stroke-width="0.7" opacity="0.5"/>
  <path d="M10 8 Q11 6 12 9 Q13 6 14 8 Q15 10 15 6" fill="none" stroke="#BA68C8" stroke-width="0.7" opacity="0.5"/>
  <!-- Curtain rod -->
  <line x1="5" y1="6" x2="15" y2="6" stroke="#CFB53B" stroke-width="0.6" opacity="0.6"/>
  <!-- Play triangle on stage -->
  <path d="M8 11 L8 17 L14 14 Z" fill="#BA68C8" opacity="0.25"/>
  <path d="M8 11 L8 17 L14 14 Z" fill="none" stroke="#BA68C8" stroke-width="0.7" opacity="0.6"/>
  <!-- Stage floor -->
  <line x1="5" y1="18" x2="15" y2="18" stroke="#CFB53B" stroke-width="0.5" opacity="0.4"/>
</svg>